<?xml version="1.0" encoding="UTF-8" standalone="no"?>
<!-- Created with Inkscape (http://www.inkscape.org/) -->

<svg
   xmlns:dc="http://purl.org/dc/elements/1.1/"
   xmlns:cc="http://creativecommons.org/ns#"
   xmlns:rdf="http://www.w3.org/1999/02/22-rdf-syntax-ns#"
   xmlns:svg="http://www.w3.org/2000/svg"
   xmlns="http://www.w3.org/2000/svg"
   xmlns:xlink="http://www.w3.org/1999/xlink"
   xmlns:sodipodi="http://sodipodi.sourceforge.net/DTD/sodipodi-0.dtd"
   xmlns:inkscape="http://www.inkscape.org/namespaces/inkscape"
   width="48px"
   height="48px"
   id="svg3071"
   version="1.1"
   inkscape:version="0.48.4 r9939"
   sodipodi:docname="appicon.svg">
  <defs
     id="defs3073">
    <radialGradient
       inkscape:collect="always"
       xlink:href="#linearGradient3820-7-2-1"
       id="radialGradient3024"
       gradientUnits="userSpaceOnUse"
       gradientTransform="matrix(0.27083381,0,0,0.08762273,-2.855072,25.187228)"
       cx="99.157013"
       cy="186.17059"
       fx="99.157013"
       fy="186.17059"
       r="62.769119" />
    <linearGradient
       id="linearGradient3820-7-2-1">
      <stop
         id="stop3822-2-6-3"
         style="stop-color:#3d3d3d;stop-opacity:1"
         offset="0" />
      <stop
         id="stop3864-8-7-7"
         style="stop-color:#686868;stop-opacity:0.49803922"
         offset="0.5" />
      <stop
         id="stop3824-1-2-5"
         style="stop-color:#686868;stop-opacity:0"
         offset="1" />
    </linearGradient>
    <radialGradient
       inkscape:collect="always"
       xlink:href="#linearGradient2867-449-88-871-390-598-476-591-434-148-57-177-8-3-3-6-4-8-8-8"
       id="radialGradient3021"
       gradientUnits="userSpaceOnUse"
       gradientTransform="matrix(0,4.4719019,-4.7307385,-1.2171829e-7,63.973756,-20.017978)"
       cx="3.9722471"
       cy="8.4497671"
       fx="3.9722471"
       fy="8.4497671"
       r="19.99999" />
    <linearGradient
       id="linearGradient2867-449-88-871-390-598-476-591-434-148-57-177-8-3-3-6-4-8-8-8">
      <stop
         id="stop3750-1-0-7-6-6-1-3-9"
         style="stop-color:#ff9766;stop-opacity:1;"
         offset="0" />
      <stop
         id="stop3752-3-7-4-0-32-8-923-0"
         style="stop-color:#fc5036;stop-opacity:1;"
         offset="0.26238" />
      <stop
         id="stop3754-1-8-5-2-7-6-7-1"
         style="stop-color:#bf005c;stop-opacity:1;"
         offset="0.704952" />
      <stop
         id="stop3756-1-6-2-6-6-1-96-6"
         style="stop-color:#d7077b;stop-opacity:1;"
         offset="1" />
    </linearGradient>
    <linearGradient
       inkscape:collect="always"
       xlink:href="#linearGradient4011"
       id="linearGradient3018"
       gradientUnits="userSpaceOnUse"
       gradientTransform="matrix(1.054054,0,0,1.054054,-51.611001,-2.7279007)"
       x1="71.204407"
       y1="6.2375584"
       x2="71.204407"
       y2="44.340794" />
    <linearGradient
       id="linearGradient4011">
      <stop
         id="stop4013"
         style="stop-color:#ffffff;stop-opacity:1"
         offset="0" />
      <stop
         id="stop4015"
         style="stop-color:#ffffff;stop-opacity:0.23529412"
         offset="0.507761" />
      <stop
         id="stop4017"
         style="stop-color:#ffffff;stop-opacity:0.15686275"
         offset="0.83456558" />
      <stop
         id="stop4019"
         style="stop-color:#ffffff;stop-opacity:0.39215687"
         offset="1" />
    </linearGradient>
    <mask
       maskUnits="userSpaceOnUse"
       id="mask3920">
      <path
         style="color:#000000;fill:#fff2be;fill-opacity:1;stroke:none;stroke-width:1;marker:none;visibility:visible;display:inline;overflow:visible;enable-background:accumulate"
         id="path3922"
         inkscape:connector-curvature="0"
         d="m 24.000003,3.499998 c -11.311193,0 -20.5000034,9.188806 -20.5000034,20.5 0,11.311194 9.1888104,20.500005 20.5000034,20.500002 11.311188,0 20.500008,-9.188808 20.499997,-20.500002 0,-11.311194 -9.188809,-20.5 -20.499997,-20.5 z" />
    </mask>
    <linearGradient
       inkscape:collect="always"
       xlink:href="#linearGradient3862"
       id="linearGradient5517"
       gradientUnits="userSpaceOnUse"
       x1="21.285112"
       y1="21.393608"
       x2="24.880571"
       y2="43.397812" />
    <linearGradient
       id="linearGradient3862">
      <stop
         style="stop-color:#ffe372;stop-opacity:1;"
         offset="0"
         id="stop3864" />
      <stop
         style="stop-color:#d3b84c;stop-opacity:1;"
         offset="1"
         id="stop3866" />
    </linearGradient>
    <linearGradient
       inkscape:collect="always"
       xlink:href="#linearGradient3870-6"
       id="linearGradient3876-8"
       x1="34.853867"
       y1="40.881355"
       x2="24.356936"
       y2="4.9830499"
       gradientUnits="userSpaceOnUse" />
    <linearGradient
       id="linearGradient3870-6">
      <stop
         style="stop-color:#000000;stop-opacity:1;"
         offset="0"
         id="stop3872-1" />
      <stop
         style="stop-color:#680000;stop-opacity:1;"
         offset="1"
         id="stop3874-8" />
    </linearGradient>
    <linearGradient
       inkscape:collect="always"
       xlink:href="#linearGradient3870"
       id="linearGradient3876"
       x1="37.154961"
       y1="32.53989"
       x2="24.932209"
       y2="4.9830499"
       gradientUnits="userSpaceOnUse" />
    <linearGradient
       id="linearGradient3870">
      <stop
         style="stop-color:#000000;stop-opacity:1;"
         offset="0"
         id="stop3872" />
      <stop
         style="stop-color:#9b0000;stop-opacity:1;"
         offset="1"
         id="stop3874" />
    </linearGradient>
    <radialGradient
       r="62.769119"
       fy="186.17059"
       fx="99.157013"
       cy="186.17059"
       cx="99.157013"
       gradientTransform="matrix(0.27083381,0,0,0.08762273,-2.855072,25.187228)"
       gradientUnits="userSpaceOnUse"
       id="radialGradient3069"
       xlink:href="#linearGradient3820-7-2-1"
       inkscape:collect="always" />
    <linearGradient
       inkscape:collect="always"
       xlink:href="#linearGradient3870"
       id="linearGradient3273"
       gradientUnits="userSpaceOnUse"
       x1="37.154961"
       y1="32.53989"
       x2="24.932209"
       y2="4.9830499" />
    <linearGradient
       inkscape:collect="always"
       xlink:href="#linearGradient3870-6"
       id="linearGradient3276"
       gradientUnits="userSpaceOnUse"
       x1="34.853867"
       y1="40.881355"
       x2="24.356936"
       y2="4.9830499" />
    <linearGradient
       inkscape:collect="always"
       xlink:href="#linearGradient3862"
       id="linearGradient3279"
       gradientUnits="userSpaceOnUse"
       x1="21.285112"
       y1="21.393608"
       x2="24.880571"
       y2="43.397812" />
    <linearGradient
       inkscape:collect="always"
       xlink:href="#linearGradient3870"
       id="linearGradient4077"
       gradientUnits="userSpaceOnUse"
       x1="37.154961"
       y1="32.53989"
       x2="24.932209"
       y2="4.9830499" />
    <linearGradient
       inkscape:collect="always"
       xlink:href="#linearGradient3870-6"
       id="linearGradient4088"
       gradientUnits="userSpaceOnUse"
       x1="34.853867"
       y1="40.881355"
       x2="24.356936"
       y2="4.9830499" />
    <radialGradient
       inkscape:collect="always"
       xlink:href="#linearGradient2867-449-88-871-390-598-476-591-434-148-57-177-8-3-3-6-4-8-8-8"
       id="radialGradient4092"
       gradientUnits="userSpaceOnUse"
       gradientTransform="matrix(0,4.4719019,-4.7307385,-1.2171829e-7,63.973756,-20.017978)"
       cx="3.9722471"
       cy="8.4497671"
       fx="3.9722471"
       fy="8.4497671"
       r="19.99999" />
    <linearGradient
       inkscape:collect="always"
       xlink:href="#linearGradient3870"
       id="linearGradient4097"
       gradientUnits="userSpaceOnUse"
       x1="37.154961"
       y1="32.53989"
       x2="24.932209"
       y2="4.9830499" />
    <radialGradient
       inkscape:collect="always"
       xlink:href="#linearGradient2867-449-88-871-390-598-476-591-434-148-57-177-8-3-3-6-4-8-8-8"
       id="radialGradient4102"
       gradientUnits="userSpaceOnUse"
       gradientTransform="matrix(0,4.4719019,-4.7307385,-1.2171829e-7,63.973756,-20.017978)"
       cx="3.9722471"
       cy="8.4497671"
       fx="3.9722471"
       fy="8.4497671"
       r="19.99999" />
    <linearGradient
       inkscape:collect="always"
       xlink:href="#linearGradient3862"
       id="linearGradient4104"
       gradientUnits="userSpaceOnUse"
       x1="21.285112"
       y1="21.393608"
       x2="24.880571"
       y2="43.397812" />
    <radialGradient
       inkscape:collect="always"
       xlink:href="#linearGradient2867-449-88-871-390-598-476-591-434-148-57-177-8-3-3-6-4-8-8-8"
       id="radialGradient4109"
       gradientUnits="userSpaceOnUse"
       gradientTransform="matrix(0,4.4719019,-4.7307385,-1.2171829e-7,63.973756,-20.017978)"
       cx="3.9722471"
       cy="8.4497671"
       fx="3.9722471"
       fy="8.4497671"
       r="19.99999" />
    <linearGradient
       inkscape:collect="always"
       xlink:href="#linearGradient3870-6"
       id="linearGradient4111"
       gradientUnits="userSpaceOnUse"
       x1="34.853867"
       y1="40.881355"
       x2="24.356936"
       y2="4.9830499" />
  </defs>
  <sodipodi:namedview
     id="base"
     pagecolor="#ffffff"
     bordercolor="#666666"
     borderopacity="1.0"
     inkscape:pageopacity="0.0"
     inkscape:pageshadow="2"
     inkscape:zoom="9.8994949"
     inkscape:cx="21.808909"
     inkscape:cy="27.243424"
     inkscape:current-layer="layer1"
     showgrid="true"
     inkscape:grid-bbox="true"
     inkscape:document-units="px"
     inkscape:window-width="1398"
     inkscape:window-height="696"
     inkscape:window-x="177"
     inkscape:window-y="307"
     inkscape:window-maximized="0" />
  <metadata
     id="metadata3076">
    <rdf:RDF>
      <cc:Work
         rdf:about="">
        <dc:format>image/svg+xml</dc:format>
        <dc:type
           rdf:resource="http://purl.org/dc/dcmitype/StillImage" />
      </cc:Work>
    </rdf:RDF>
  </metadata>
  <g
     id="layer1"
     inkscape:label="Layer 1"
     inkscape:groupmode="layer">
    <path
       style="fill:url(#radialGradient3069);fill-opacity:1;stroke:none"
       id="path3818-0-5"
       inkscape:connector-curvature="0"
       d="m 40.999999,41.499999 a 17,5.4999999 0 1 1 -33.999999,0 17,5.4999999 0 1 1 33.999999,0 z" />
    <path
       d="M 24.000003,3.4999984 C 12.68881,3.4999984 3.4999996,12.688804 3.4999996,23.999998 3.4999996,35.311192 12.68881,44.500003 24.000003,44.5 35.311191,44.5 44.500011,35.311192 44.5,23.999998 44.5,12.688804 35.311191,3.4999984 24.000003,3.4999984 z"
       inkscape:connector-curvature="0"
       id="path4107"
       style="color:#000000;fill:url(#radialGradient4109);fill-opacity:1;fill-rule:nonzero;stroke:none;stroke-width:1;marker:none;visibility:visible;display:inline;overflow:visible;enable-background:accumulate" />
    <path
       style="opacity:0.92867838999999996;color:#000000;fill:url(#linearGradient4104);fill-opacity:1;stroke:none;stroke-width:0.95873540999999995;marker:none;visibility:visible;display:inline;overflow:visible;enable-background:accumulate"
       d="M 21.65625 3.625 C 21.395999 3.6546918 21.132215 3.7106326 20.875 3.75 C 20.602773 3.7920733 20.330989 3.82213 20.0625 3.875 C 19.642341 3.9569915 19.223099 4.0802203 18.8125 4.1875 C 18.591541 4.2459473 18.374189 4.3093268 18.15625 4.375 C 17.965238 4.4318414 17.782394 4.5002783 17.59375 4.5625 C 17.214701 4.6890744 16.837568 4.8208016 16.46875 4.96875 C 16.229099 5.0638245 15.985132 5.1462415 15.75 5.25 C 15.477359 5.3715134 15.203751 5.4920583 14.9375 5.625 C 14.700751 5.7420758 14.450236 5.8429053 14.21875 5.96875 C 13.729404 6.2373051 13.276885 6.5376826 12.8125 6.84375 C 12.441257 7.0884292 12.07294 7.3576803 11.71875 7.625 C 11.617834 7.7011646 11.50573 7.7658092 11.40625 7.84375 C 11.039548 8.131054 10.690227 8.4394339 10.34375 8.75 C 17.058718 11.843435 21.6875 18.177323 21.6875 25.53125 C 21.687507 31.999294 18.116743 37.707629 12.6875 41.09375 C 12.70682 41.106561 12.730634 41.112252 12.75 41.125 C 13.230028 41.440977 13.71181 41.755657 14.21875 42.03125 C 17.12332 43.610289 20.465252 44.500001 24 44.5 C 25.270352 44.5 26.511949 44.378044 27.71875 44.15625 C 34.086444 39.716459 36.656259 31.748817 36.65625 24.0625 C 36.65625 15.107069 30.543003 7.345499 21.65625 3.625 z "
       id="path5515" />
    <path
       style="font-size:medium;font-style:normal;font-variant:normal;font-weight:normal;font-stretch:normal;text-indent:0;text-align:start;text-decoration:none;line-height:normal;letter-spacing:normal;word-spacing:normal;text-transform:none;direction:ltr;block-progression:tb;writing-mode:lr-tb;text-anchor:start;baseline-shift:baseline;opacity:1;color:#000000;fill:url(#linearGradient4111);fill-opacity:1;stroke:none;stroke-width:4.75899981999999966;marker:none;visibility:visible;display:inline;overflow:visible;enable-background:accumulate;font-family:Sans;-inkscape-font-specification:Sans"
       d="M 12.375 7.125 C 10.993958 8.0782923 9.7639124 9.2141189 8.65625 10.46875 A 2.3797379 2.3797379 0 0 0 9.34375 10.90625 C 15.221229 13.613873 18.15625 18.927621 18.15625 25.53125 C 18.156256 31.405717 16.117287 36.143801 11.4375 39.0625 A 2.3850527 2.3850527 0 0 0 10.8125 39.65625 C 12.096812 40.739708 13.506466 41.661272 15.03125 42.40625 C 20.453016 38.473097 22.906258 32.165666 22.90625 25.53125 C 22.90625 17.809213 19.251942 10.781775 12.375 7.125 z "
       id="path3824" />
    <path
       style="font-size:medium;font-style:normal;font-variant:normal;font-weight:normal;font-stretch:normal;text-indent:0;text-align:start;text-decoration:none;line-height:normal;letter-spacing:normal;word-spacing:normal;text-transform:none;direction:ltr;block-progression:tb;writing-mode:lr-tb;text-anchor:start;baseline-shift:baseline;opacity:1;color:#000000;fill:url(#linearGradient4097);fill-opacity:1;stroke:none;stroke-width:4.75899981999999966;marker:none;visibility:visible;display:inline;overflow:visible;enable-background:accumulate;font-family:Sans;-inkscape-font-specification:Sans"
       d="M 24 3.5 C 22.972575 3.5 21.955857 3.5724201 20.96875 3.71875 C 27.852961 7.6834358 32.539682 14.360805 33.78125 21.5 C 35.165015 29.456852 32.524127 37.965999 23.46875 44.5 C 23.644273 44.504452 23.823415 44.5 24 44.5 C 26.961311 44.5 29.768931 43.851571 32.3125 42.71875 C 37.906492 36.03489 39.75351 28.075062 38.46875 20.6875 C 37.396645 14.522739 34.252189 8.7641891 29.59375 4.28125 C 27.816449 3.7776437 25.937326 3.5 24 3.5 z "
       id="path3824-3" />
    <path
       style="font-size:medium;font-style:normal;font-variant:normal;font-weight:normal;font-stretch:normal;text-indent:0;text-align:start;text-decoration:none;line-height:normal;letter-spacing:normal;word-spacing:normal;text-transform:none;direction:ltr;block-progression:tb;writing-mode:lr-tb;text-anchor:start;baseline-shift:baseline;opacity:0.40000000000000002;color:#000000;fill:none;fill-opacity:1;stroke:none;stroke-width:1;marker:none;visibility:visible;display:inline;overflow:visible;enable-background:accumulate;font-family:Sans;-inkscape-font-specification:Sans"
       d="M 24,3 C 12.418019,3 3,12.418018 3,24 3,35.581982 12.418019,45.000003 24,45 35.581976,45 45.000011,35.581983 45,24 45,12.418018 35.581976,3 24,3 z m 0,1 c 11.0404,0 20,8.959594 20,20 1.1e-5,11.040405 -8.9596,20 -20,20 C 12.959595,44.000003 4,35.040406 4,24 4,12.959594 12.959595,4 24,4 z"
       id="path3913-4"
       inkscape:connector-curvature="0" />
    <path
       d="M 24.000003,3.4999982 C 12.68881,3.4999982 3.4999996,12.688804 3.4999996,23.999998 3.4999996,35.311192 12.68881,44.500003 24.000003,44.5 35.311191,44.5 44.500011,35.311192 44.5,23.999998 44.5,12.688804 35.311191,3.4999982 24.000003,3.4999982 z"
       inkscape:connector-curvature="0"
       id="path3913"
       style="opacity:0.40000000000000002;color:#000000;fill:none;stroke:#640000;stroke-width:1;stroke-linecap:round;stroke-linejoin:round;stroke-miterlimit:4;stroke-opacity:1;stroke-dasharray:none;stroke-dashoffset:0;marker:none;visibility:visible;display:inline;overflow:visible;enable-background:accumulate" />
    <path
       style="opacity:0.5;color:#000000;fill:none;stroke:url(#linearGradient3018);stroke-width:1;stroke-linecap:round;stroke-linejoin:round;stroke-miterlimit:4;stroke-opacity:1;stroke-dasharray:none;stroke-dashoffset:0;marker:none;visibility:visible;display:inline;overflow:visible;enable-background:accumulate"
       id="path8655"
       inkscape:connector-curvature="0"
       d="m 43.5,23.999308 c 0,10.7699 -8.73109,19.50069 -19.499753,19.50069 -10.769649,0 -19.5002474,-8.730889 -19.5002474,-19.50069 0,-10.769402 8.7305984,-19.4993076 19.5002474,-19.4993076 C 34.76891,4.5000004 43.5,13.229906 43.5,23.999308 l 0,0 z" />
  </g>
</svg>
